  0
SECTION
  2
HEADER
  9
$ACADVER
  1
AC1009
  9
$EXTMAX
 10
304.799987792969
 20
304.799987792969
 30
0.0
  9
$EXTMIN
 10
0.0
 20
0.0
 30
0.0
  9
$INSUNITS
 70
     1
  9
$LUNITS
 70
     2
  9
$LUPREC
 70
     4
  9
$MEASUREMENT
 70
     0
  0
ENDSEC
  0
SECTION
  2
TABLES
  0
TABLE
  2
LAYER
 70
     1
  0
LAYER
  2
0
 70
     0
 62
     7
  6
Continuous
  0
LAYER
  2
Default
 70
     0
 62
    70
  6
Continuous
  0
ENDTAB
  0
TABLE
  2
APPID
 70
     1
  0
APPID
  2
ACAD
 70
     0
  0
ENDTAB
  0
ENDSEC
  0
SECTION
  2
ENTITIES
  0
POLYLINE
  8
Default
 66
     1
 10
0.0
 20
0.0
 30
0.0
 70
     1
  0
VERTEX
  8
Default
 10
0.0
 20
0.0
 42
0.0
  0
VERTEX
  8
Default
 10
12.0
 20
0.0
 42
0.0
  0
VERTEX
  8
Default
 10
12.0
 20
12.0
 42
0.0
  0
VERTEX
  8
Default
 10
0.0
 20
12.0
 42
0.0
  0
SEQEND
  0
POLYLINE
  8
Default
 66
     1
 10
0.0
 20
0.0
 30
0.0
 70
     1
  0
VERTEX
  8
Default
 10
1.0
 20
1.0
 42
0.0
  0
VERTEX
  8
Default
 10
11.0
 20
1.0
 42
0.0
  0
VERTEX
  8
Default
 10
11.0
 20
11.0
 42
0.0
  0
VERTEX
  8
Default
 10
1.0
 20
11.0
 42
0.0
  0
SEQEND
  0
CIRCLE
  8
Default
 10
2.0
 20
0.625
 30
0.0
 40
0.125
  0
CIRCLE
  8
Default
 10
4.625
 20
0.625
 30
0.0
 40
0.125
  0
CIRCLE
  8
Default
 10
7.375
 20
0.625
 30
0.0
 40
0.125
  0
CIRCLE
  8
Default
 10
10.0
 20
0.625
 30
0.0
 40
0.125
  0
CIRCLE
  8
Default
 10
11.375
 20
2.0
 30
0.0
 40
0.125
  0
CIRCLE
  8
Default
 10
11.375
 20
4.625
 30
0.0
 40
0.125
  0
CIRCLE
  8
Default
 10
11.375
 20
7.375
 30
0.0
 40
0.125
  0
CIRCLE
  8
Default
 10
11.375
 20
10.0
 30
0.0
 40
0.125
  0
CIRCLE
  8
Default
 10
10.0
 20
11.375
 30
0.0
 40
0.125
  0
CIRCLE
  8
Default
 10
7.375
 20
11.375
 30
0.0
 40
0.125
  0
CIRCLE
  8
Default
 10
4.625
 20
11.375
 30
0.0
 40
0.125
  0
CIRCLE
  8
Default
 10
2.0
 20
11.375
 30
0.0
 40
0.125
  0
CIRCLE
  8
Default
 10
0.625
 20
2.0
 30
0.0
 40
0.125
  0
CIRCLE
  8
Default
 10
0.625
 20
4.625
 30
0.0
 40
0.125
  0
CIRCLE
  8
Default
 10
0.625
 20
7.375
 30
0.0
 40
0.125
  0
CIRCLE
  8
Default
 10
0.625
 20
10.0
 30
0.0
 40
0.125
  0
POLYLINE
  8
Default
 66
     1
 10
0.0
 20
0.0
 30
0.0
 70
     1
  0
VERTEX
  8
Default
 10
0.875
 20
0.875
 42
0.0
  0
VERTEX
  8
Default
 10
11.125
 20
0.875
 42
0.0
  0
VERTEX
  8
Default
 10
11.125
 20
11.125
 42
0.0
  0
VERTEX
  8
Default
 10
0.875
 20
11.125
 42
0.0
  0
SEQEND
  0
ENDSEC
  0
EOF
